<svg width="278" height="278" viewBox="0 0 278 278" fill="none" xmlns="http://www.w3.org/2000/svg">
<g filter="url(#filter0_d_15_258)">
<circle cx="139" cy="133" r="133" fill="url(#paint0_linear_15_258)" shape-rendering="crispEdges"/>
<circle cx="139" cy="133" r="130.5" stroke="#32D74B" stroke-width="5" shape-rendering="crispEdges"/>
</g>
<path d="M67.7677 143H71.8966V126.676H77.6114V123.271H62.0665V126.676H67.7677V143ZM80.3364 143.232C80.9835 143.232 81.5805 143.137 82.1274 142.945C82.6742 142.745 83.1619 142.467 83.5903 142.111C84.0278 141.747 84.3832 141.314 84.6567 140.812H84.7387V143H88.7309V132.951C88.7309 131.967 88.4711 131.105 87.9516 130.367C87.4412 129.629 86.7211 129.059 85.7914 128.658C84.8617 128.248 83.7634 128.043 82.4965 128.043C81.2114 128.043 80.0994 128.243 79.1606 128.645C78.2309 129.036 77.5017 129.583 76.9731 130.285C76.4535 130.987 76.1573 131.789 76.0844 132.691L76.0707 132.855H79.7211L79.7485 132.732C79.8487 132.258 80.1176 131.867 80.5551 131.557C80.9926 131.247 81.5851 131.092 82.3324 131.092C83.1163 131.092 83.7133 131.283 84.1235 131.666C84.5336 132.04 84.7387 132.55 84.7387 133.197V137.641C84.7387 138.151 84.602 138.611 84.3285 139.021C84.0642 139.423 83.6951 139.742 83.2211 139.979C82.7563 140.206 82.2276 140.32 81.6352 140.32C80.9425 140.32 80.391 140.17 79.9809 139.869C79.5707 139.559 79.3657 139.135 79.3657 138.598V138.57C79.3657 138.051 79.5662 137.636 79.9672 137.326C80.3683 137.007 80.9516 136.825 81.7172 136.779L86.8305 136.451V133.963L81.1157 134.318C79.9034 134.4 78.8735 134.624 78.0258 134.988C77.1782 135.353 76.531 135.854 76.0844 136.492C75.6378 137.121 75.4145 137.882 75.4145 138.775V138.803C75.4145 139.66 75.6196 140.425 76.0297 141.1C76.449 141.765 77.0278 142.289 77.766 142.672C78.5043 143.046 79.3611 143.232 80.3364 143.232ZM91.2097 143H95.2019V123.271H91.2097V143ZM100.425 143H105.032L98.4285 133.484L95.8992 136.52L100.425 143ZM94.7097 138.68L97.1023 136.041H97.991L104.759 128.344H100.233L95.284 134.209H94.7097V138.68ZM111.886 143.301C112.934 143.301 113.845 143.164 114.62 142.891C115.404 142.617 116.065 142.253 116.603 141.797C117.15 141.341 117.582 140.84 117.901 140.293C118.22 139.746 118.435 139.204 118.544 138.666L118.585 138.516H114.921L114.894 138.598C114.803 138.871 114.629 139.14 114.374 139.404C114.119 139.669 113.791 139.887 113.39 140.061C112.989 140.234 112.515 140.32 111.968 140.32C111.275 140.32 110.678 140.17 110.177 139.869C109.676 139.559 109.288 139.117 109.015 138.543C108.75 137.969 108.618 137.276 108.618 136.465V134.92C108.618 134.081 108.75 133.375 109.015 132.801C109.288 132.217 109.662 131.775 110.136 131.475C110.619 131.174 111.17 131.023 111.79 131.023C112.41 131.023 112.952 131.169 113.417 131.461C113.891 131.753 114.26 132.19 114.525 132.773C114.789 133.348 114.921 134.063 114.921 134.92V136.451L116.821 134.1H106.636V136.615H118.708V135.385C118.708 133.908 118.421 132.618 117.847 131.516C117.282 130.413 116.475 129.561 115.427 128.959C114.388 128.348 113.153 128.043 111.722 128.043C110.291 128.043 109.047 128.357 107.989 128.986C106.941 129.606 106.125 130.49 105.542 131.639C104.968 132.778 104.681 134.127 104.681 135.686V135.699C104.681 137.258 104.968 138.607 105.542 139.746C106.125 140.885 106.955 141.765 108.03 142.385C109.106 142.995 110.391 143.301 111.886 143.301ZM130.201 143.232C130.848 143.232 131.445 143.137 131.992 142.945C132.539 142.745 133.027 142.467 133.455 142.111C133.892 141.747 134.248 141.314 134.521 140.812H134.603V143H138.596V132.951C138.596 131.967 138.336 131.105 137.816 130.367C137.306 129.629 136.586 129.059 135.656 128.658C134.726 128.248 133.628 128.043 132.361 128.043C131.076 128.043 129.964 128.243 129.025 128.645C128.096 129.036 127.366 129.583 126.838 130.285C126.318 130.987 126.022 131.789 125.949 132.691L125.935 132.855H129.586L129.613 132.732C129.713 132.258 129.982 131.867 130.42 131.557C130.857 131.247 131.45 131.092 132.197 131.092C132.981 131.092 133.578 131.283 133.988 131.666C134.398 132.04 134.603 132.55 134.603 133.197V137.641C134.603 138.151 134.467 138.611 134.193 139.021C133.929 139.423 133.56 139.742 133.086 139.979C132.621 140.206 132.092 140.32 131.5 140.32C130.807 140.32 130.256 140.17 129.846 139.869C129.435 139.559 129.23 139.135 129.23 138.598V138.57C129.23 138.051 129.431 137.636 129.832 137.326C130.233 137.007 130.816 136.825 131.582 136.779L136.695 136.451V133.963L130.98 134.318C129.768 134.4 128.738 134.624 127.89 134.988C127.043 135.353 126.396 135.854 125.949 136.492C125.502 137.121 125.279 137.882 125.279 138.775V138.803C125.279 139.66 125.484 140.425 125.894 141.1C126.314 141.765 126.892 142.289 127.631 142.672C128.369 143.046 129.226 143.232 130.201 143.232ZM148.653 143H155.325C156.737 143 157.95 142.772 158.961 142.316C159.982 141.852 160.766 141.2 161.313 140.361C161.869 139.523 162.147 138.529 162.147 137.381V137.354C162.147 136.488 161.942 135.713 161.532 135.029C161.131 134.337 160.575 133.781 159.864 133.361C159.153 132.933 158.337 132.687 157.417 132.623V132.541C158.146 132.441 158.797 132.19 159.372 131.789C159.946 131.379 160.397 130.868 160.725 130.258C161.062 129.638 161.231 128.968 161.231 128.248V128.221C161.231 127.209 160.985 126.334 160.493 125.596C160.001 124.848 159.303 124.274 158.401 123.873C157.499 123.472 156.423 123.271 155.174 123.271H148.653V126.334H154.108C155.074 126.334 155.826 126.553 156.364 126.99C156.902 127.419 157.17 128.025 157.17 128.809V128.836C157.17 129.684 156.865 130.344 156.254 130.818C155.653 131.283 154.769 131.516 153.602 131.516H148.653V134.318H154.094C154.933 134.318 155.635 134.423 156.2 134.633C156.774 134.842 157.207 135.157 157.499 135.576C157.79 135.986 157.936 136.492 157.936 137.094V137.121C157.936 138.033 157.622 138.73 156.993 139.213C156.364 139.687 155.457 139.924 154.272 139.924H148.653V143ZM146.588 143H150.717V123.271H146.588V143ZM163.915 143H167.907V134.797C167.907 134.086 168.03 133.484 168.276 132.992C168.522 132.5 168.878 132.126 169.343 131.871C169.807 131.616 170.368 131.488 171.024 131.488C171.316 131.488 171.589 131.511 171.845 131.557C172.1 131.593 172.309 131.643 172.474 131.707V128.193C172.328 128.148 172.155 128.111 171.954 128.084C171.753 128.057 171.544 128.043 171.325 128.043C170.468 128.043 169.753 128.294 169.179 128.795C168.604 129.296 168.208 129.998 167.989 130.9H167.907V128.344H163.915V143ZM180.079 143.301C181.127 143.301 182.039 143.164 182.814 142.891C183.598 142.617 184.258 142.253 184.796 141.797C185.343 141.341 185.776 140.84 186.095 140.293C186.414 139.746 186.628 139.204 186.738 138.666L186.779 138.516H183.114L183.087 138.598C182.996 138.871 182.823 139.14 182.568 139.404C182.312 139.669 181.984 139.887 181.583 140.061C181.182 140.234 180.708 140.32 180.161 140.32C179.469 140.32 178.872 140.17 178.37 139.869C177.869 139.559 177.482 139.117 177.208 138.543C176.944 137.969 176.812 137.276 176.812 136.465V134.92C176.812 134.081 176.944 133.375 177.208 132.801C177.482 132.217 177.855 131.775 178.329 131.475C178.812 131.174 179.364 131.023 179.984 131.023C180.603 131.023 181.146 131.169 181.611 131.461C182.085 131.753 182.454 132.19 182.718 132.773C182.982 133.348 183.114 134.063 183.114 134.92V136.451L185.015 134.1H174.829V136.615H186.902V135.385C186.902 133.908 186.614 132.618 186.04 131.516C185.475 130.413 184.669 129.561 183.62 128.959C182.581 128.348 181.346 128.043 179.915 128.043C178.484 128.043 177.24 128.357 176.183 128.986C175.135 129.606 174.319 130.49 173.736 131.639C173.161 132.778 172.874 134.127 172.874 135.686V135.699C172.874 137.258 173.161 138.607 173.736 139.746C174.319 140.885 175.148 141.765 176.224 142.385C177.299 142.995 178.585 143.301 180.079 143.301ZM193.086 143.232C193.733 143.232 194.33 143.137 194.877 142.945C195.423 142.745 195.911 142.467 196.339 142.111C196.777 141.747 197.132 141.314 197.406 140.812H197.488V143H201.48V132.951C201.48 131.967 201.22 131.105 200.701 130.367C200.19 129.629 199.47 129.059 198.541 128.658C197.611 128.248 196.513 128.043 195.246 128.043C193.961 128.043 192.849 128.243 191.91 128.645C190.98 129.036 190.251 129.583 189.722 130.285C189.203 130.987 188.906 131.789 188.834 132.691L188.82 132.855H192.47L192.498 132.732C192.598 132.258 192.867 131.867 193.304 131.557C193.742 131.247 194.334 131.092 195.082 131.092C195.865 131.092 196.462 131.283 196.873 131.666C197.283 132.04 197.488 132.55 197.488 133.197V137.641C197.488 138.151 197.351 138.611 197.078 139.021C196.813 139.423 196.444 139.742 195.97 139.979C195.505 140.206 194.977 140.32 194.384 140.32C193.692 140.32 193.14 140.17 192.73 139.869C192.32 139.559 192.115 139.135 192.115 138.598V138.57C192.115 138.051 192.315 137.636 192.716 137.326C193.117 137.007 193.701 136.825 194.466 136.779L199.58 136.451V133.963L193.865 134.318C192.653 134.4 191.623 134.624 190.775 134.988C189.927 135.353 189.28 135.854 188.834 136.492C188.387 137.121 188.164 137.882 188.164 138.775V138.803C188.164 139.66 188.369 140.425 188.779 141.1C189.198 141.765 189.777 142.289 190.515 142.672C191.253 143.046 192.11 143.232 193.086 143.232ZM203.959 143H207.951V123.271H203.959V143ZM213.174 143H217.781L211.178 133.484L208.648 136.52L213.174 143ZM207.459 138.68L209.851 136.041H210.74L217.508 128.344H212.982L208.033 134.209H207.459V138.68Z" fill="white"/>
<defs>
<filter id="filter0_d_15_258" x="0" y="0" width="278" height="278" filterUnits="userSpaceOnUse" color-interpolation-filters="sRGB">
<feFlood flood-opacity="0" result="BackgroundImageFix"/>
<feColorMatrix in="SourceAlpha" type="matrix" values="0 0 0 0 0 0 0 0 0 0 0 0 0 0 0 0 0 0 127 0" result="hardAlpha"/>
<feOffset dy="6"/>
<feGaussianBlur stdDeviation="3"/>
<feComposite in2="hardAlpha" operator="out"/>
<feColorMatrix type="matrix" values="0 0 0 0 0 0 0 0 0 0 0 0 0 0 0 0 0 0 0.25 0"/>
<feBlend mode="normal" in2="BackgroundImageFix" result="effect1_dropShadow_15_258"/>
<feBlend mode="normal" in="SourceGraphic" in2="effect1_dropShadow_15_258" result="shape"/>
</filter>
<linearGradient id="paint0_linear_15_258" x1="54" y1="34" x2="139" y2="266" gradientUnits="userSpaceOnUse">
<stop stop-color="#4A9129"/>
<stop offset="1" stop-color="#1BFFE4" stop-opacity="0.31"/>
</linearGradient>
</defs>
</svg>
