<svg width="278" height="278" viewBox="0 0 278 278" fill="none" xmlns="http://www.w3.org/2000/svg">
<g filter="url(#filter0_d_57_375)">
<circle cx="139" cy="133" r="133" fill="url(#paint0_linear_57_375)" shape-rendering="crispEdges"/>
<circle cx="139" cy="133" r="130.5" stroke="#32D74B" stroke-width="5" shape-rendering="crispEdges"/>
</g>
<path d="M74.8087 143.342C76.4675 143.342 77.8894 143.091 79.0743 142.59C80.2683 142.079 81.1798 141.364 81.8087 140.443C82.4467 139.514 82.7657 138.415 82.7657 137.148V137.135C82.7657 136.105 82.5515 135.225 82.1231 134.496C81.7039 133.758 81.0522 133.147 80.168 132.664C79.2839 132.181 78.1537 131.803 76.7774 131.529L74.6856 131.105C73.5554 130.878 72.726 130.572 72.1973 130.189C71.6687 129.807 71.4044 129.305 71.4044 128.686V128.672C71.4044 128.198 71.5365 127.783 71.8009 127.428C72.0743 127.072 72.4662 126.794 72.9766 126.594C73.4871 126.384 74.0932 126.279 74.795 126.279C75.4786 126.279 76.0802 126.38 76.5997 126.58C77.1283 126.781 77.5522 127.068 77.8712 127.441C78.1902 127.806 78.3861 128.248 78.4591 128.768L78.4727 128.932H82.3692L82.3555 128.672C82.2917 127.523 81.9499 126.516 81.3302 125.65C80.7104 124.785 79.8445 124.115 78.7325 123.641C77.6296 123.167 76.3171 122.93 74.795 122.93C73.3367 122.93 72.0424 123.18 70.9122 123.682C69.782 124.174 68.8933 124.871 68.2462 125.773C67.599 126.667 67.2755 127.715 67.2755 128.918V128.932C67.2755 130.417 67.7677 131.625 68.752 132.555C69.7364 133.484 71.1993 134.145 73.1407 134.537L75.2188 134.947C76.4493 135.202 77.3243 135.521 77.8438 135.904C78.3725 136.278 78.6368 136.798 78.6368 137.463V137.477C78.6368 137.978 78.4818 138.42 78.172 138.803C77.8712 139.176 77.4428 139.468 76.8868 139.678C76.3399 139.878 75.6837 139.979 74.918 139.979C74.1706 139.979 73.5007 139.878 72.9083 139.678C72.3158 139.468 71.8328 139.181 71.4591 138.816C71.0945 138.443 70.8666 138.001 70.7755 137.49L70.7481 137.34H66.8516L66.8653 137.559C66.9473 138.771 67.321 139.81 67.9864 140.676C68.6518 141.533 69.5632 142.193 70.7208 142.658C71.8874 143.114 73.2501 143.342 74.8087 143.342ZM91.3832 143.301C92.4314 143.301 93.3429 143.164 94.1176 142.891C94.9015 142.617 95.5623 142.253 96.1 141.797C96.6469 141.341 97.0798 140.84 97.3989 140.293C97.7179 139.746 97.9321 139.204 98.0414 138.666L98.0825 138.516H94.4184L94.391 138.598C94.2999 138.871 94.1267 139.14 93.8715 139.404C93.6163 139.669 93.2882 139.887 92.8871 140.061C92.4861 140.234 92.0121 140.32 91.4653 140.32C90.7726 140.32 90.1755 140.17 89.6742 139.869C89.1729 139.559 88.7856 139.117 88.5121 138.543C88.2478 137.969 88.1157 137.276 88.1157 136.465V134.92C88.1157 134.081 88.2478 133.375 88.5121 132.801C88.7856 132.217 89.1593 131.775 89.6332 131.475C90.1163 131.174 90.6677 131.023 91.2875 131.023C91.9073 131.023 92.4496 131.169 92.9145 131.461C93.3884 131.753 93.7576 132.19 94.0219 132.773C94.2862 133.348 94.4184 134.063 94.4184 134.92V136.451L96.3188 134.1H86.1332V136.615H98.2055V135.385C98.2055 133.908 97.9184 132.618 97.3442 131.516C96.7791 130.413 95.9724 129.561 94.9242 128.959C93.8852 128.348 92.6502 128.043 91.2192 128.043C89.7882 128.043 88.544 128.357 87.4867 128.986C86.4386 129.606 85.6228 130.49 85.0395 131.639C84.4653 132.778 84.1782 134.127 84.1782 135.686V135.699C84.1782 137.258 84.4653 138.607 85.0395 139.746C85.6228 140.885 86.4522 141.765 87.5278 142.385C88.6033 142.995 89.8884 143.301 91.3832 143.301ZM104.389 143.232C105.037 143.232 105.634 143.137 106.18 142.945C106.727 142.745 107.215 142.467 107.643 142.111C108.081 141.747 108.436 141.314 108.71 140.812H108.792V143H112.784V132.951C112.784 131.967 112.524 131.105 112.005 130.367C111.494 129.629 110.774 129.059 109.845 128.658C108.915 128.248 107.817 128.043 106.55 128.043C105.264 128.043 104.152 128.243 103.214 128.645C102.284 129.036 101.555 129.583 101.026 130.285C100.507 130.987 100.21 131.789 100.137 132.691L100.124 132.855H103.774L103.802 132.732C103.902 132.258 104.171 131.867 104.608 131.557C105.046 131.247 105.638 131.092 106.386 131.092C107.169 131.092 107.766 131.283 108.177 131.666C108.587 132.04 108.792 132.55 108.792 133.197V137.641C108.792 138.151 108.655 138.611 108.382 139.021C108.117 139.423 107.748 139.742 107.274 139.979C106.809 140.206 106.281 140.32 105.688 140.32C104.996 140.32 104.444 140.17 104.034 139.869C103.624 139.559 103.419 139.135 103.419 138.598V138.57C103.419 138.051 103.619 137.636 104.02 137.326C104.421 137.007 105.005 136.825 105.77 136.779L110.884 136.451V133.963L105.169 134.318C103.956 134.4 102.927 134.624 102.079 134.988C101.231 135.353 100.584 135.854 100.137 136.492C99.6909 137.121 99.4676 137.882 99.4676 138.775V138.803C99.4676 139.66 99.6726 140.425 100.083 141.1C100.502 141.765 101.081 142.289 101.819 142.672C102.557 143.046 103.414 143.232 104.389 143.232ZM115.126 143H119.118V134.797C119.118 134.086 119.241 133.484 119.487 132.992C119.734 132.5 120.089 132.126 120.554 131.871C121.019 131.616 121.579 131.488 122.235 131.488C122.527 131.488 122.801 131.511 123.056 131.557C123.311 131.593 123.521 131.643 123.685 131.707V128.193C123.539 128.148 123.366 128.111 123.165 128.084C122.965 128.057 122.755 128.043 122.536 128.043C121.679 128.043 120.964 128.294 120.39 128.795C119.816 129.296 119.419 129.998 119.2 130.9H119.118V128.344H115.126V143ZM131.318 143.301C132.621 143.301 133.756 143.055 134.722 142.562C135.697 142.061 136.463 141.387 137.019 140.539C137.575 139.691 137.885 138.734 137.949 137.668V137.586H134.23L134.216 137.709C134.08 138.447 133.765 139.044 133.273 139.5C132.79 139.947 132.147 140.17 131.345 140.17C130.689 140.17 130.119 139.997 129.636 139.65C129.162 139.295 128.793 138.785 128.529 138.119C128.274 137.445 128.146 136.629 128.146 135.672V135.658C128.146 134.729 128.274 133.931 128.529 133.266C128.793 132.591 129.162 132.076 129.636 131.721C130.119 131.356 130.684 131.174 131.332 131.174C132.161 131.174 132.817 131.411 133.3 131.885C133.783 132.35 134.084 132.933 134.203 133.635L134.23 133.758H137.935V133.662C137.88 132.605 137.575 131.652 137.019 130.805C136.472 129.957 135.711 129.287 134.736 128.795C133.761 128.294 132.608 128.043 131.277 128.043C129.818 128.043 128.547 128.353 127.462 128.973C126.387 129.583 125.553 130.458 124.96 131.598C124.377 132.728 124.085 134.077 124.085 135.645V135.658C124.085 137.226 124.377 138.584 124.96 139.732C125.544 140.872 126.378 141.751 127.462 142.371C128.547 142.991 129.832 143.301 131.318 143.301ZM139.73 143H143.722V134.605C143.722 133.967 143.841 133.407 144.078 132.924C144.324 132.432 144.661 132.049 145.09 131.775C145.527 131.493 146.038 131.352 146.621 131.352C147.532 131.352 148.23 131.643 148.713 132.227C149.205 132.801 149.451 133.598 149.451 134.619V143H153.443V133.799C153.443 132.614 153.234 131.593 152.814 130.736C152.404 129.88 151.816 129.219 151.051 128.754C150.285 128.28 149.369 128.043 148.303 128.043C147.209 128.043 146.279 128.289 145.514 128.781C144.757 129.264 144.187 129.962 143.805 130.873H143.722V123.271H139.73V143ZM155.854 143H159.846V128.344H155.854V143ZM157.85 126.457C158.451 126.457 158.957 126.252 159.367 125.842C159.778 125.432 159.983 124.944 159.983 124.379C159.983 123.805 159.778 123.317 159.367 122.916C158.957 122.506 158.451 122.301 157.85 122.301C157.248 122.301 156.742 122.506 156.332 122.916C155.922 123.317 155.717 123.805 155.717 124.379C155.717 124.944 155.922 125.432 156.332 125.842C156.742 126.252 157.248 126.457 157.85 126.457ZM162.284 143H166.276V134.578C166.276 133.931 166.394 133.366 166.631 132.883C166.877 132.4 167.219 132.026 167.657 131.762C168.094 131.488 168.609 131.352 169.202 131.352C170.095 131.352 170.765 131.616 171.211 132.145C171.667 132.664 171.895 133.402 171.895 134.359V143H175.887V133.539C175.887 131.816 175.445 130.472 174.561 129.506C173.686 128.531 172.442 128.043 170.829 128.043C169.726 128.043 168.801 128.285 168.053 128.768C167.306 129.251 166.741 129.911 166.358 130.75H166.276V128.344H162.284V143ZM185.024 148.086C186.492 148.086 187.759 147.854 188.825 147.389C189.901 146.924 190.725 146.277 191.3 145.447C191.883 144.627 192.175 143.674 192.175 142.59V128.344H188.182V130.846H188.1C187.836 130.271 187.485 129.775 187.048 129.355C186.619 128.936 186.118 128.613 185.544 128.385C184.97 128.157 184.336 128.043 183.643 128.043C182.404 128.043 181.337 128.339 180.444 128.932C179.551 129.524 178.858 130.376 178.366 131.488C177.883 132.6 177.641 133.936 177.641 135.494V135.508C177.641 137.021 177.878 138.324 178.352 139.418C178.835 140.503 179.519 141.337 180.403 141.92C181.296 142.503 182.354 142.795 183.575 142.795C184.286 142.795 184.933 142.695 185.516 142.494C186.109 142.285 186.624 141.993 187.061 141.619C187.499 141.245 187.845 140.803 188.1 140.293H188.182V142.535C188.182 143.355 187.914 144.012 187.376 144.504C186.838 144.996 186.054 145.242 185.024 145.242C184.195 145.242 183.52 145.105 183.001 144.832C182.481 144.559 182.14 144.244 181.975 143.889L181.934 143.793H178.052L178.065 143.916C178.193 144.7 178.548 145.406 179.132 146.035C179.724 146.664 180.517 147.161 181.511 147.525C182.513 147.899 183.684 148.086 185.024 148.086ZM184.956 139.869C184.3 139.869 183.725 139.696 183.233 139.35C182.741 139.003 182.363 138.511 182.099 137.873C181.834 137.235 181.702 136.479 181.702 135.604V135.59C181.702 134.706 181.834 133.949 182.099 133.32C182.363 132.691 182.741 132.208 183.233 131.871C183.725 131.525 184.3 131.352 184.956 131.352C185.603 131.352 186.168 131.525 186.651 131.871C187.143 132.208 187.522 132.696 187.786 133.334C188.059 133.963 188.196 134.715 188.196 135.59V135.604C188.196 136.479 188.059 137.235 187.786 137.873C187.522 138.511 187.148 139.003 186.665 139.35C186.182 139.696 185.612 139.869 184.956 139.869ZM196.636 143.232C197.256 143.232 197.78 143.018 198.208 142.59C198.637 142.161 198.851 141.637 198.851 141.018C198.851 140.398 198.637 139.874 198.208 139.445C197.78 139.017 197.256 138.803 196.636 138.803C196.016 138.803 195.492 139.017 195.064 139.445C194.635 139.874 194.421 140.398 194.421 141.018C194.421 141.637 194.635 142.161 195.064 142.59C195.492 143.018 196.016 143.232 196.636 143.232ZM203.148 143.232C203.768 143.232 204.292 143.018 204.72 142.59C205.149 142.161 205.363 141.637 205.363 141.018C205.363 140.398 205.149 139.874 204.72 139.445C204.292 139.017 203.768 138.803 203.148 138.803C202.528 138.803 202.004 139.017 201.576 139.445C201.147 139.874 200.933 140.398 200.933 141.018C200.933 141.637 201.147 142.161 201.576 142.59C202.004 143.018 202.528 143.232 203.148 143.232ZM209.66 143.232C210.28 143.232 210.804 143.018 211.232 142.59C211.661 142.161 211.875 141.637 211.875 141.018C211.875 140.398 211.661 139.874 211.232 139.445C210.804 139.017 210.28 138.803 209.66 138.803C209.04 138.803 208.516 139.017 208.088 139.445C207.659 139.874 207.445 140.398 207.445 141.018C207.445 141.637 207.659 142.161 208.088 142.59C208.516 143.018 209.04 143.232 209.66 143.232Z" fill="white"/>
<defs>
<filter id="filter0_d_57_375" x="0" y="0" width="278" height="278" filterUnits="userSpaceOnUse" color-interpolation-filters="sRGB">
<feFlood flood-opacity="0" result="BackgroundImageFix"/>
<feColorMatrix in="SourceAlpha" type="matrix" values="0 0 0 0 0 0 0 0 0 0 0 0 0 0 0 0 0 0 127 0" result="hardAlpha"/>
<feOffset dy="6"/>
<feGaussianBlur stdDeviation="3"/>
<feComposite in2="hardAlpha" operator="out"/>
<feColorMatrix type="matrix" values="0 0 0 0 0 0 0 0 0 0 0 0 0 0 0 0 0 0 0.25 0"/>
<feBlend mode="normal" in2="BackgroundImageFix" result="effect1_dropShadow_57_375"/>
<feBlend mode="normal" in="SourceGraphic" in2="effect1_dropShadow_57_375" result="shape"/>
</filter>
<linearGradient id="paint0_linear_57_375" x1="54" y1="34" x2="139" y2="266" gradientUnits="userSpaceOnUse">
<stop stop-color="#4A9129"/>
<stop offset="1" stop-color="#1BFFE4" stop-opacity="0.31"/>
</linearGradient>
</defs>
</svg>
